# xmcd CD database file
#
# Track frame offsets:
#	150
#	11980
#	30602
#	44345
#	57880
#	68665
#	84230
#	102007
#	117747
#	130067
#	148577
#	166240
#	179555
#	195762
#	217690
#
# Disc length: 3086 seconds
#
# Revision: 0
# Processed by: cddbd v1.5.1PL0 Copyright (c) Steve Scherf et al.
# Submitted via: CDex 1.51
#
DISCID=c50c0c0f
DTITLE=Ray Sherman - At the Keyboard
DYEAR=1994
DGENRE=Jazz
TTITLE0=The Earl
TTITLE1=Here's that rainy day
TTITLE2=Little Rock Getaway
TTITLE3=What is There to Say
TTITLE4=Thou Swell
TTITLE5=Avalon
TTITLE6=We'll be Together Again
TTITLE7=Just You, Just Me
TTITLE8=Pick Yourself Up
TTITLE9=I hadn't Anyone Til You
TTITLE10=The World is Waiting for the Sunrise
TTITLE11=These Foolish Things Remind Me of You
TTITLE12=Honky Tonk Train
TTITLE13=Tea for Two
TTITLE14=After You've Gone
EXTD=YEAR: 1994
EXTT0=
EXTT1=
EXTT2=
EXTT3=
EXTT4=
EXTT5=
EXTT6=
EXTT7=
EXTT8=
EXTT9=
EXTT10=
EXTT11=
EXTT12=
EXTT13=
EXTT14=
PLAYORDER=
